# xmcd
#
# Track frame offsets:
#	150
#	55200
#	85895
#	126865
#	167742
#	209120
#
# Disc length: 3827 seconds
#
# Revision: 1
# Processed by: cddbd v1.4PL0 Copyright (c) Steve Scherf et al.
# Submitted via: audiograbber 1.82.01
#
DISCID=540ef106
DTITLE=clapton, eric - 1992 - 12-02 live at the albert hall cd 1
DYEAR=1992
DGENRE=Blues
TTITLE0=old love
TTITLE1=badge
TTITLE2=wonderful tonight
TTITLE3=layla
TTITLE4=band introduction - crossroads
TTITLE5=sunshine of your love inc. drum solo and ray cooper solo
EXTD=
EXTT0=
EXTT1=
EXTT2=
EXTT3=
EXTT4=
EXTT5=
PLAYORDER=
